<mxfile host="Electron" agent="Mozilla/5.0 (Windows NT 10.0; Win64; x64) AppleWebKit/537.36 (KHTML, like Gecko) draw.io/26.0.9 Chrome/128.0.6613.186 Electron/32.2.5 Safari/537.36" version="26.0.9">
  <diagram name="Page-1" id="AhT9I5dHA7N7V3ZJyqeo">
    <mxGraphModel dx="1209" dy="875" grid="1" gridSize="10" guides="1" tooltips="1" connect="1" arrows="1" fold="1" page="1" pageScale="1" pageWidth="1100" pageHeight="850" background="none" math="0" shadow="0">
      <root>
        <mxCell id="0" />
        <mxCell id="1" parent="0" />
        <mxCell id="UeVcTxfl1f0NLnuTEzfS-1" value="" style="points=[];aspect=fixed;html=1;align=center;shadow=0;dashed=0;fillColor=#CC8F73;strokeColor=none;shape=mxgraph.alibaba_cloud.multi-mode_database_lindorm;" parent="1" vertex="1">
          <mxGeometry x="365" y="75.05" width="75.69" height="80" as="geometry" />
        </mxCell>
        <mxCell id="UeVcTxfl1f0NLnuTEzfS-2" value="&lt;font style=&quot;font-size: 24px;&quot;&gt;&lt;b&gt;Bronze Layer&lt;/b&gt;&lt;/font&gt;" style="rounded=0;whiteSpace=wrap;html=1;fillColor=#F7AF8A;strokeColor=#000000;shadow=1;" parent="1" vertex="1">
          <mxGeometry x="455" y="95.05" width="280" height="60" as="geometry" />
        </mxCell>
        <mxCell id="UeVcTxfl1f0NLnuTEzfS-3" value="&lt;b&gt;Interview &lt;/b&gt;Source System Experts" style="rounded=0;whiteSpace=wrap;html=1;shadow=1;" parent="1" vertex="1">
          <mxGeometry x="60" y="215" width="210" height="60" as="geometry" />
        </mxCell>
        <mxCell id="UeVcTxfl1f0NLnuTEzfS-4" value="&lt;font style=&quot;color: rgb(0, 0, 0);&quot;&gt;&lt;b&gt;Analyzing&lt;/b&gt;&lt;/font&gt;" style="rounded=0;whiteSpace=wrap;html=1;fillColor=#66FFFF;strokeColor=#006EAF;fontColor=#ffffff;" parent="1" vertex="1">
          <mxGeometry x="117.5" y="200" width="95" height="30" as="geometry" />
        </mxCell>
        <mxCell id="UeVcTxfl1f0NLnuTEzfS-10" value="Data &lt;b&gt;Ingestion&lt;/b&gt;" style="rounded=0;whiteSpace=wrap;html=1;shadow=1;" parent="1" vertex="1">
          <mxGeometry x="320" y="215" width="210" height="60" as="geometry" />
        </mxCell>
        <mxCell id="UeVcTxfl1f0NLnuTEzfS-11" value="&lt;font style=&quot;color: rgb(0, 0, 0);&quot;&gt;&lt;b&gt;Coding&lt;/b&gt;&lt;/font&gt;" style="rounded=0;whiteSpace=wrap;html=1;fillColor=#66FFFF;strokeColor=#006EAF;fontColor=#ffffff;" parent="1" vertex="1">
          <mxGeometry x="377.5" y="200" width="95" height="30" as="geometry" />
        </mxCell>
        <mxCell id="UeVcTxfl1f0NLnuTEzfS-12" value="&lt;div&gt;&lt;br&gt;&lt;/div&gt;Data &lt;b&gt;Completeness &lt;/b&gt;&amp;amp;&amp;nbsp;&lt;div&gt;&lt;b&gt;Schema &lt;/b&gt;Checks&lt;/div&gt;" style="rounded=0;whiteSpace=wrap;html=1;shadow=1;" parent="1" vertex="1">
          <mxGeometry x="580" y="215" width="210" height="60" as="geometry" />
        </mxCell>
        <mxCell id="UeVcTxfl1f0NLnuTEzfS-13" value="&lt;b&gt;&lt;font style=&quot;color: rgb(0, 0, 0);&quot;&gt;Validating&lt;/font&gt;&lt;/b&gt;" style="rounded=0;whiteSpace=wrap;html=1;fillColor=#66FFFF;strokeColor=#006EAF;fontColor=#ffffff;" parent="1" vertex="1">
          <mxGeometry x="637.5" y="200" width="95" height="30" as="geometry" />
        </mxCell>
        <mxCell id="UeVcTxfl1f0NLnuTEzfS-14" value="&lt;div&gt;&lt;br&gt;&lt;/div&gt;Data &lt;b&gt;Documenting&amp;nbsp;&lt;/b&gt;&lt;div&gt;Version in &lt;b&gt;GIT&lt;/b&gt;&lt;/div&gt;" style="rounded=0;whiteSpace=wrap;html=1;shadow=1;" parent="1" vertex="1">
          <mxGeometry x="840" y="215" width="210" height="60" as="geometry" />
        </mxCell>
        <mxCell id="UeVcTxfl1f0NLnuTEzfS-17" value="" style="html=1;shadow=0;dashed=0;align=center;verticalAlign=middle;shape=mxgraph.arrows2.arrow;dy=0;dx=10;notch=10;fillColor=#3D3D3D;" parent="1" vertex="1">
          <mxGeometry x="280" y="230" width="33" height="30" as="geometry" />
        </mxCell>
        <mxCell id="UeVcTxfl1f0NLnuTEzfS-18" value="" style="html=1;shadow=0;dashed=0;align=center;verticalAlign=middle;shape=mxgraph.arrows2.arrow;dy=0;dx=10;notch=10;fillColor=#3D3D3D;" parent="1" vertex="1">
          <mxGeometry x="540" y="230" width="33" height="30" as="geometry" />
        </mxCell>
        <mxCell id="UeVcTxfl1f0NLnuTEzfS-19" value="" style="html=1;shadow=0;dashed=0;align=center;verticalAlign=middle;shape=mxgraph.arrows2.arrow;dy=0;dx=10;notch=10;fillColor=#3D3D3D;" parent="1" vertex="1">
          <mxGeometry x="800" y="230" width="33" height="30" as="geometry" />
        </mxCell>
        <mxCell id="UeVcTxfl1f0NLnuTEzfS-20" value="&lt;b&gt;&lt;font style=&quot;color: rgb(0, 0, 0);&quot;&gt;Docs &amp;amp; Version&lt;/font&gt;&lt;/b&gt;" style="rounded=0;whiteSpace=wrap;html=1;fillColor=#66FFFF;strokeColor=#006EAF;fontColor=#ffffff;" parent="1" vertex="1">
          <mxGeometry x="897.5" y="200" width="95" height="30" as="geometry" />
        </mxCell>
        <mxCell id="UeVcTxfl1f0NLnuTEzfS-21" value="" style="points=[];aspect=fixed;html=1;align=center;shadow=0;dashed=0;fillColor=#eeeeee;strokeColor=#36393d;shape=mxgraph.alibaba_cloud.multi-mode_database_lindorm;" parent="1" vertex="1">
          <mxGeometry x="375" y="325" width="75.69" height="80" as="geometry" />
        </mxCell>
        <mxCell id="UeVcTxfl1f0NLnuTEzfS-22" value="&lt;font style=&quot;font-size: 24px;&quot;&gt;&lt;b&gt;Silver Layer&lt;/b&gt;&lt;/font&gt;" style="rounded=0;whiteSpace=wrap;html=1;fillColor=#eeeeee;strokeColor=#36393d;shadow=1;" parent="1" vertex="1">
          <mxGeometry x="465" y="345" width="280" height="60" as="geometry" />
        </mxCell>
        <mxCell id="UeVcTxfl1f0NLnuTEzfS-23" value="&lt;div&gt;&lt;br&gt;&lt;/div&gt;&lt;b&gt;Explore &lt;/b&gt;&amp;amp; &lt;b&gt;Understand&amp;nbsp;&lt;/b&gt;&lt;div&gt;the data&lt;/div&gt;" style="rounded=0;whiteSpace=wrap;html=1;shadow=1;" parent="1" vertex="1">
          <mxGeometry x="70" y="464.95" width="210" height="60" as="geometry" />
        </mxCell>
        <mxCell id="UeVcTxfl1f0NLnuTEzfS-24" value="&lt;font style=&quot;color: rgb(0, 0, 0);&quot;&gt;&lt;b&gt;Analyzing&lt;/b&gt;&lt;/font&gt;" style="rounded=0;whiteSpace=wrap;html=1;fillColor=#66FFFF;strokeColor=#006EAF;fontColor=#ffffff;" parent="1" vertex="1">
          <mxGeometry x="127.5" y="449.95" width="95" height="30" as="geometry" />
        </mxCell>
        <mxCell id="UeVcTxfl1f0NLnuTEzfS-25" value="Data &lt;b&gt;Cleansing&lt;/b&gt;" style="rounded=0;whiteSpace=wrap;html=1;shadow=1;" parent="1" vertex="1">
          <mxGeometry x="330" y="464.95" width="210" height="60" as="geometry" />
        </mxCell>
        <mxCell id="UeVcTxfl1f0NLnuTEzfS-26" value="&lt;font style=&quot;color: rgb(0, 0, 0);&quot;&gt;&lt;b&gt;Coding&lt;/b&gt;&lt;/font&gt;" style="rounded=0;whiteSpace=wrap;html=1;fillColor=#66FFFF;strokeColor=#006EAF;fontColor=#ffffff;" parent="1" vertex="1">
          <mxGeometry x="387.5" y="449.95" width="95" height="30" as="geometry" />
        </mxCell>
        <mxCell id="UeVcTxfl1f0NLnuTEzfS-27" value="&lt;div&gt;Data &lt;b&gt;Correctness &lt;/b&gt;Checks&lt;/div&gt;" style="rounded=0;whiteSpace=wrap;html=1;shadow=1;" parent="1" vertex="1">
          <mxGeometry x="590" y="464.95" width="210" height="60" as="geometry" />
        </mxCell>
        <mxCell id="UeVcTxfl1f0NLnuTEzfS-28" value="&lt;b&gt;&lt;font style=&quot;color: rgb(0, 0, 0);&quot;&gt;Validating&lt;/font&gt;&lt;/b&gt;" style="rounded=0;whiteSpace=wrap;html=1;fillColor=#66FFFF;strokeColor=#006EAF;fontColor=#ffffff;" parent="1" vertex="1">
          <mxGeometry x="647.5" y="449.95" width="95" height="30" as="geometry" />
        </mxCell>
        <mxCell id="UeVcTxfl1f0NLnuTEzfS-29" value="&lt;div&gt;&lt;br&gt;&lt;/div&gt;Data &lt;b&gt;Documenting&amp;nbsp;&lt;/b&gt;&lt;div&gt;Version in &lt;b&gt;GIT&lt;/b&gt;&lt;/div&gt;" style="rounded=0;whiteSpace=wrap;html=1;shadow=1;" parent="1" vertex="1">
          <mxGeometry x="850" y="464.95" width="210" height="60" as="geometry" />
        </mxCell>
        <mxCell id="UeVcTxfl1f0NLnuTEzfS-30" value="" style="html=1;shadow=0;dashed=0;align=center;verticalAlign=middle;shape=mxgraph.arrows2.arrow;dy=0;dx=10;notch=10;fillColor=#3D3D3D;" parent="1" vertex="1">
          <mxGeometry x="290" y="479.95" width="33" height="30" as="geometry" />
        </mxCell>
        <mxCell id="UeVcTxfl1f0NLnuTEzfS-31" value="" style="html=1;shadow=0;dashed=0;align=center;verticalAlign=middle;shape=mxgraph.arrows2.arrow;dy=0;dx=10;notch=10;fillColor=#3D3D3D;" parent="1" vertex="1">
          <mxGeometry x="550" y="479.95" width="33" height="30" as="geometry" />
        </mxCell>
        <mxCell id="UeVcTxfl1f0NLnuTEzfS-32" value="" style="html=1;shadow=0;dashed=0;align=center;verticalAlign=middle;shape=mxgraph.arrows2.arrow;dy=0;dx=10;notch=10;fillColor=#3D3D3D;" parent="1" vertex="1">
          <mxGeometry x="810" y="479.95" width="33" height="30" as="geometry" />
        </mxCell>
        <mxCell id="UeVcTxfl1f0NLnuTEzfS-33" value="&lt;b&gt;&lt;font style=&quot;color: rgb(0, 0, 0);&quot;&gt;Docs &amp;amp; Version&lt;/font&gt;&lt;/b&gt;" style="rounded=0;whiteSpace=wrap;html=1;fillColor=#66FFFF;strokeColor=#006EAF;fontColor=#ffffff;" parent="1" vertex="1">
          <mxGeometry x="907.5" y="449.95" width="95" height="30" as="geometry" />
        </mxCell>
        <mxCell id="UeVcTxfl1f0NLnuTEzfS-34" value="&lt;b&gt;Check Quality&amp;nbsp;&lt;/b&gt;&lt;div&gt;of &lt;b&gt;Bronze&lt;/b&gt;&lt;/div&gt;" style="rounded=0;whiteSpace=wrap;html=1;fillColor=#d5e8d4;strokeColor=#000000;" parent="1" vertex="1">
          <mxGeometry x="251.5" y="570" width="110" height="40" as="geometry" />
        </mxCell>
        <mxCell id="UeVcTxfl1f0NLnuTEzfS-35" value="Write &lt;b&gt;Data&lt;/b&gt;&lt;div&gt;&lt;b&gt;Transformations&lt;/b&gt;&lt;/div&gt;" style="rounded=0;whiteSpace=wrap;html=1;fillColor=#d5e8d4;strokeColor=#000000;" parent="1" vertex="1">
          <mxGeometry x="380" y="570" width="110" height="40" as="geometry" />
        </mxCell>
        <mxCell id="UeVcTxfl1f0NLnuTEzfS-36" value="&lt;b&gt;Insert &lt;/b&gt;into&lt;div&gt;&lt;b&gt;Silver Layer&lt;/b&gt;&lt;/div&gt;" style="rounded=0;whiteSpace=wrap;html=1;fillColor=#d5e8d4;strokeColor=#000000;" parent="1" vertex="1">
          <mxGeometry x="511.5" y="570" width="110" height="40" as="geometry" />
        </mxCell>
        <mxCell id="UeVcTxfl1f0NLnuTEzfS-38" value="" style="endArrow=none;dashed=1;html=1;dashPattern=1 3;strokeWidth=2;rounded=0;exitX=0;exitY=0;exitDx=0;exitDy=0;" parent="1" source="UeVcTxfl1f0NLnuTEzfS-34" edge="1">
          <mxGeometry width="50" height="50" relative="1" as="geometry">
            <mxPoint x="281.5" y="570" as="sourcePoint" />
            <mxPoint x="331.5" y="520" as="targetPoint" />
          </mxGeometry>
        </mxCell>
        <mxCell id="UeVcTxfl1f0NLnuTEzfS-39" value="" style="endArrow=none;dashed=1;html=1;dashPattern=1 3;strokeWidth=2;rounded=0;fontStyle=1;exitX=1;exitY=0;exitDx=0;exitDy=0;" parent="1" source="UeVcTxfl1f0NLnuTEzfS-36" edge="1">
          <mxGeometry width="50" height="50" relative="1" as="geometry">
            <mxPoint x="490" y="574.95" as="sourcePoint" />
            <mxPoint x="540" y="524.95" as="targetPoint" />
            <Array as="points" />
          </mxGeometry>
        </mxCell>
        <mxCell id="UeVcTxfl1f0NLnuTEzfS-41" value="" style="endArrow=none;dashed=1;html=1;dashPattern=1 3;strokeWidth=2;rounded=0;exitX=0.5;exitY=0;exitDx=0;exitDy=0;" parent="1" source="UeVcTxfl1f0NLnuTEzfS-35" edge="1">
          <mxGeometry width="50" height="50" relative="1" as="geometry">
            <mxPoint x="390.69" y="580" as="sourcePoint" />
            <mxPoint x="440.69" y="530" as="targetPoint" />
          </mxGeometry>
        </mxCell>
        <mxCell id="iIQ-U_WLHuU4zkDXn-ZH-1" value="&lt;font style=&quot;font-size: 24px;&quot;&gt;&lt;b&gt;Gold Layer&lt;/b&gt;&lt;/font&gt;" style="rounded=0;whiteSpace=wrap;html=1;fillColor=#fff2cc;strokeColor=#d6b656;shadow=1;" vertex="1" parent="1">
          <mxGeometry x="466.5" y="660" width="280" height="60" as="geometry" />
        </mxCell>
        <mxCell id="iIQ-U_WLHuU4zkDXn-ZH-2" value="&lt;div&gt;&lt;br&gt;&lt;/div&gt;&lt;b&gt;Explore &lt;/b&gt;&amp;amp; &lt;b&gt;Understand&amp;nbsp;&lt;/b&gt;&lt;div&gt;Business Objectives&lt;/div&gt;" style="rounded=0;whiteSpace=wrap;html=1;shadow=1;" vertex="1" parent="1">
          <mxGeometry x="71.5" y="779.95" width="210" height="60" as="geometry" />
        </mxCell>
        <mxCell id="iIQ-U_WLHuU4zkDXn-ZH-3" value="&lt;font style=&quot;color: rgb(0, 0, 0);&quot;&gt;&lt;b&gt;Analyzing&lt;/b&gt;&lt;/font&gt;" style="rounded=0;whiteSpace=wrap;html=1;fillColor=#66FFFF;strokeColor=#006EAF;fontColor=#ffffff;" vertex="1" parent="1">
          <mxGeometry x="129" y="764.95" width="95" height="30" as="geometry" />
        </mxCell>
        <mxCell id="iIQ-U_WLHuU4zkDXn-ZH-4" value="Data Inegration" style="rounded=0;whiteSpace=wrap;html=1;shadow=1;" vertex="1" parent="1">
          <mxGeometry x="331.5" y="779.95" width="210" height="60" as="geometry" />
        </mxCell>
        <mxCell id="iIQ-U_WLHuU4zkDXn-ZH-5" value="&lt;font style=&quot;color: rgb(0, 0, 0);&quot;&gt;&lt;b&gt;Coding&lt;/b&gt;&lt;/font&gt;" style="rounded=0;whiteSpace=wrap;html=1;fillColor=#66FFFF;strokeColor=#006EAF;fontColor=#ffffff;" vertex="1" parent="1">
          <mxGeometry x="389" y="764.95" width="95" height="30" as="geometry" />
        </mxCell>
        <mxCell id="iIQ-U_WLHuU4zkDXn-ZH-6" value="&lt;div&gt;Data &lt;b&gt;Integration&amp;nbsp;&lt;/b&gt;Checks&lt;/div&gt;" style="rounded=0;whiteSpace=wrap;html=1;shadow=1;" vertex="1" parent="1">
          <mxGeometry x="591.5" y="779.95" width="210" height="60" as="geometry" />
        </mxCell>
        <mxCell id="iIQ-U_WLHuU4zkDXn-ZH-7" value="&lt;b&gt;&lt;font style=&quot;color: rgb(0, 0, 0);&quot;&gt;Validating&lt;/font&gt;&lt;/b&gt;" style="rounded=0;whiteSpace=wrap;html=1;fillColor=#66FFFF;strokeColor=#006EAF;fontColor=#ffffff;" vertex="1" parent="1">
          <mxGeometry x="649" y="764.95" width="95" height="30" as="geometry" />
        </mxCell>
        <mxCell id="iIQ-U_WLHuU4zkDXn-ZH-8" value="&lt;div&gt;&lt;br&gt;&lt;/div&gt;Data &lt;b&gt;Documenting&amp;nbsp;&lt;/b&gt;&lt;div&gt;Version in &lt;b&gt;GIT&lt;/b&gt;&lt;/div&gt;" style="rounded=0;whiteSpace=wrap;html=1;shadow=1;" vertex="1" parent="1">
          <mxGeometry x="851.5" y="779.95" width="210" height="60" as="geometry" />
        </mxCell>
        <mxCell id="iIQ-U_WLHuU4zkDXn-ZH-9" value="" style="html=1;shadow=0;dashed=0;align=center;verticalAlign=middle;shape=mxgraph.arrows2.arrow;dy=0;dx=10;notch=10;fillColor=#3D3D3D;" vertex="1" parent="1">
          <mxGeometry x="291.5" y="794.95" width="33" height="30" as="geometry" />
        </mxCell>
        <mxCell id="iIQ-U_WLHuU4zkDXn-ZH-10" value="" style="html=1;shadow=0;dashed=0;align=center;verticalAlign=middle;shape=mxgraph.arrows2.arrow;dy=0;dx=10;notch=10;fillColor=#3D3D3D;" vertex="1" parent="1">
          <mxGeometry x="551.5" y="794.95" width="33" height="30" as="geometry" />
        </mxCell>
        <mxCell id="iIQ-U_WLHuU4zkDXn-ZH-11" value="" style="html=1;shadow=0;dashed=0;align=center;verticalAlign=middle;shape=mxgraph.arrows2.arrow;dy=0;dx=10;notch=10;fillColor=#3D3D3D;" vertex="1" parent="1">
          <mxGeometry x="811.5" y="794.95" width="33" height="30" as="geometry" />
        </mxCell>
        <mxCell id="iIQ-U_WLHuU4zkDXn-ZH-12" value="&lt;b&gt;&lt;font style=&quot;color: rgb(0, 0, 0);&quot;&gt;Docs &amp;amp; Version&lt;/font&gt;&lt;/b&gt;" style="rounded=0;whiteSpace=wrap;html=1;fillColor=#66FFFF;strokeColor=#006EAF;fontColor=#ffffff;" vertex="1" parent="1">
          <mxGeometry x="909" y="764.95" width="95" height="30" as="geometry" />
        </mxCell>
        <mxCell id="iIQ-U_WLHuU4zkDXn-ZH-13" value="&lt;b&gt;Buid &lt;/b&gt;the &lt;b&gt;Business Objects&lt;/b&gt;" style="rounded=0;whiteSpace=wrap;html=1;fillColor=#d5e8d4;strokeColor=#000000;" vertex="1" parent="1">
          <mxGeometry x="253" y="885" width="110" height="40" as="geometry" />
        </mxCell>
        <mxCell id="iIQ-U_WLHuU4zkDXn-ZH-14" value="&lt;b&gt;Choose &lt;/b&gt;type &lt;b&gt;Dimension &lt;/b&gt;vs &lt;b&gt;Fact&lt;/b&gt;" style="rounded=0;whiteSpace=wrap;html=1;fillColor=#d5e8d4;strokeColor=#000000;" vertex="1" parent="1">
          <mxGeometry x="381.5" y="885" width="110" height="40" as="geometry" />
        </mxCell>
        <mxCell id="iIQ-U_WLHuU4zkDXn-ZH-15" value="&lt;b&gt;Rename&lt;/b&gt;&lt;div&gt;&lt;b&gt;&lt;/b&gt;to &lt;b&gt;friendly &lt;/b&gt;names&lt;/div&gt;" style="rounded=0;whiteSpace=wrap;html=1;fillColor=#d5e8d4;strokeColor=#000000;" vertex="1" parent="1">
          <mxGeometry x="513" y="885" width="110" height="40" as="geometry" />
        </mxCell>
        <mxCell id="iIQ-U_WLHuU4zkDXn-ZH-16" value="" style="endArrow=none;dashed=1;html=1;dashPattern=1 3;strokeWidth=2;rounded=0;exitX=0;exitY=0;exitDx=0;exitDy=0;" edge="1" parent="1" source="iIQ-U_WLHuU4zkDXn-ZH-13">
          <mxGeometry width="50" height="50" relative="1" as="geometry">
            <mxPoint x="283" y="885" as="sourcePoint" />
            <mxPoint x="333" y="835" as="targetPoint" />
          </mxGeometry>
        </mxCell>
        <mxCell id="iIQ-U_WLHuU4zkDXn-ZH-17" value="" style="endArrow=none;dashed=1;html=1;dashPattern=1 3;strokeWidth=2;rounded=0;fontStyle=1;exitX=1;exitY=0;exitDx=0;exitDy=0;" edge="1" parent="1" source="iIQ-U_WLHuU4zkDXn-ZH-15">
          <mxGeometry width="50" height="50" relative="1" as="geometry">
            <mxPoint x="491.5" y="889.95" as="sourcePoint" />
            <mxPoint x="541.5" y="839.95" as="targetPoint" />
            <Array as="points" />
          </mxGeometry>
        </mxCell>
        <mxCell id="iIQ-U_WLHuU4zkDXn-ZH-18" value="" style="endArrow=none;dashed=1;html=1;dashPattern=1 3;strokeWidth=2;rounded=0;exitX=0.5;exitY=0;exitDx=0;exitDy=0;" edge="1" parent="1" source="iIQ-U_WLHuU4zkDXn-ZH-14">
          <mxGeometry width="50" height="50" relative="1" as="geometry">
            <mxPoint x="392.19" y="895" as="sourcePoint" />
            <mxPoint x="442.19" y="845" as="targetPoint" />
          </mxGeometry>
        </mxCell>
      </root>
    </mxGraphModel>
  </diagram>
</mxfile>
